# xmcd
#
# Track frame offsets: 
#        150
#        10833
#        22660
#        34630
#        45462
#        56938
#        67230
#        80713
#        90735
#        102749
#        115674
#        128135
#        142808
#        155232
#        166994
#        178703
#        189737
#        199927
#        212375
#        224718
#        235813
#        245266
#        255401
#        267260
#
# Disc length: 3710 seconds
#
# Revision: 0
# Processed by: cddbd v1.5.2PL0 Copyright (c) Steve Scherf et al.
# Submitted via: ExactAudioCopy v0.90b4
#
DISCID=590e7c18
DTITLE=Joe and Rose Lee Maphis - Ridin' The Frets
DYEAR=2010
DGENRE=Country
TTITLE0=Square Dance Boogie
TTITLE1=Fire On The Strings
TTITLE2=You Can't Take The Heart Out Of Me
TTITLE3=Let's Pull Together
TTITLE4=Tennessee Two Step
TTITLE5=Let's Talk About Love
TTITLE6=Dim Lights, Thick Smoke (And Loud, Loud Music)
TTITLE7=Twin Banjo Special
TTITLE8=Let's Fly Away
TTITLE9=The Go'fer Song
TTITLE10=Town Hall Shuffle
TTITLE11=Dream House For Sale
TTITLE12=Black Mountain Rag (On A Saturday Night)
TTITLE13=Sweet Fern
TTITLE14=I'm Willin' To Try
TTITLE15=Henhouse Serenade
TTITLE16=Bully Of The Town
TTITLE17=Your Old Love Letters
TTITLE18=Cold Heart Of Steel
TTITLE19=You Ain't Got The Sense You Were Borned With
TTITLE20=Floggin' The Banjo
TTITLE21=Lonesome Train Boogie
TTITLE22=I Gotta Lot Of Lovin'
TTITLE23=Guitar Rock And Roll
EXTD=
EXTT0=
EXTT1=
EXTT2=
EXTT3=
EXTT4=
EXTT5=
EXTT6=
EXTT7=
EXTT8=
EXTT9=
EXTT10=
EXTT11=
EXTT12=
EXTT13=
EXTT14=
EXTT15=
EXTT16=
EXTT17=
EXTT18=
EXTT19=
EXTT20=
EXTT21=
EXTT22=
EXTT23=
PLAYORDER=
